HIERARCHY
ROOT Hips
{
  OFFSET -31.5692 30.0904 122.763
  CHANNELS 6 Xposition Yposition Zposition Zrotation Xrotation Yrotation
  JOINT LeftUpLeg
  {
    OFFSET 8.64259 1.95398 -2.38835
    CHANNELS 3 Zrotation Xrotation Yrotation
    JOINT LeftLeg
    {
      OFFSET 43.7702 0 0
      CHANNELS 3 Zrotation Xrotation Yrotation
      JOINT LeftFoot
      {
        OFFSET 40.6238 0 0
        CHANNELS 3 Zrotation Xrotation Yrotation
        JOINT LeftToeBase
        {
          OFFSET 12.7242 0 0
          CHANNELS 3 Zrotation Xrotation Yrotation
          End Site
          {
            OFFSET 0 0 0
          }
        }
      }
    }
  }
  JOINT RightUpLeg
  {
    OFFSET -8.2249 1.95398 -2.59336
    CHANNELS 3 Zrotation Xrotation Yrotation
    JOINT RightLeg
    {
      OFFSET 43.5653 0 0
      CHANNELS 3 Zrotation Xrotation Yrotation
      JOINT RightFoot
      {
        OFFSET 40.6238 0 0
        CHANNELS 3 Zrotation Xrotation Yrotation
        JOINT RightToeBase
        {
          OFFSET 12.7242 0 0
          CHANNELS 3 Zrotation Xrotation Yrotation
          End Site
          {
            OFFSET 0 0 0
          }
        }
      }
    }
  }
  JOINT Spine
  {
    OFFSET 0.165834 0.87714 6.61349
    CHANNELS 3 Zrotation Xrotation Yrotation
    JOINT Spine1
    {
      OFFSET 7.38963 1.71661e-005 0
      CHANNELS 3 Zrotation Xrotation Yrotation
      JOINT Spine2
      {
        OFFSET 11.9445 1.14441e-005 0
        CHANNELS 3 Zrotation Xrotation Yrotation
        JOINT Spine3
        {
          OFFSET 14.7254 4.19617e-005 0
          CHANNELS 3 Zrotation Xrotation Yrotation
          JOINT Spine4
          {
            OFFSET 10.9679 0 0
            CHANNELS 3 Zrotation Xrotation Yrotation
            JOINT RightShoulder
            {
              OFFSET 2.46616 -1.6653 3.69651
              CHANNELS 3 Zrotation Xrotation Yrotation
              JOINT RightArm
              {
                OFFSET 13.0012 0 0
                CHANNELS 3 Zrotation Xrotation Yrotation
                JOINT RightForeArm
                {
                  OFFSET 28.7848 1.62311e-005 0
                  CHANNELS 3 Zrotation Xrotation Yrotation
                  JOINT RightHand
                  {
                    OFFSET 26.5688 1.62095e-005 0
                    CHANNELS 3 Zrotation Xrotation Yrotation
                    End Site
                    {
                      OFFSET 0 0 0
                    }
                  }
                }
              }
            }
            JOINT LeftShoulder
            {
              OFFSET 2.38034 -1.29275 -3.7523
              CHANNELS 3 Zrotation Xrotation Yrotation
              JOINT LeftArm
              {
                OFFSET 16.3182 6.07031e-005 0
                CHANNELS 3 Zrotation Xrotation Yrotation
                JOINT LeftForeArm
                {
                  OFFSET 27.0901 0 0
                  CHANNELS 3 Zrotation Xrotation Yrotation
                  JOINT LeftHand
                  {
                    OFFSET 24.5451 1.51738e-005 0
                    CHANNELS 3 Zrotation Xrotation Yrotation
                    End Site
                    {
                      OFFSET 0 0 0
                    }
                  }
                }
              }
            }
            JOINT Neck
            {
              OFFSET 5.0226 -0.0266342 0
              CHANNELS 3 Zrotation Xrotation Yrotation
              JOINT Head
              {
                OFFSET 6.69364 2.86102e-005 0
                CHANNELS 3 Zrotation Xrotation Yrotation
                End Site
                {
                  OFFSET 0 0 0
                }
              }
            }
          }
        }
      }
    }
  }
}
MOTION
Frames:	9
Frame Time:	0.0416667
289.935 81.2194 290.878 -79.7186 40.1228 -103.355 -163.859 52.3836 73.6433 -73.8236 4.88381 -6.49714 88.0547 13.9665 -0.16361 19.4106 -5.51938 2.18004 169.783 13.37 92.0665 -106.926 -2.9439 -3.39075 72.3826 1.52326 3.48298 94.7333 -22.5895 16.1799 1.05763 8.18153 -88.7716 10.481 2.67033 2.20429 -1.1889 2.76473 2.08462 -23.7215 1.88469 2.90464 -3.70888 1.88469 2.90465 91.9542 -24.1852 -104.947 19.2827 52.4377 5.20524 -25.0406 -4.61898 -107.107 -23.4986 4.48461 -33.8768 -91.6377 -51.6129 76.6689 -7.46497 16.8699 -9.04835 120.791 -8.00103 -61.5172 -67.1877 -39.9416 69.7223 24.6695 -9.5582 -15.4822 -7.3755 -3.87658 4.89713 
277.065 89.0637 275.973 -83.6164 38.1777 -103.627 -170.664 24.2941 78.7718 -53.8905 -2.261 -4.34793 93.5588 16.4043 -8.16235 29.3097 0.284563 0.0493869 169.657 29.4575 88.5975 -110.229 -0.329207 -3.74371 72.0378 -7.20353 -6.60321 54.2512 -10.9873 7.60722 -0.107335 8.19415 -88.4145 10.4707 0.513185 3.09339 -1.2043 0.648723 3.06784 -23.7069 -0.439636 3.10473 -3.69425 -0.439629 3.10473 93.8836 -26.0927 -100.092 16.8182 32.5002 25.3443 -21.946 4.09746 -122.871 -38.1019 13.1591 -37.4387 -90.6608 -50.9769 77.9593 -2.15358 24.9082 -41.6183 132.62 25.1152 -69.3127 -70.3825 -45.809 57.7787 19.6959 -6.29736 -16.2675 -5.82426 -1.11783 4.30767 
263.584 89.7745 262.322 -85.2707 37.8899 -96.9142 -170.683 4.61805 87.8059 -42.158 4.67993 -1.57141 95.2847 21.4773 -4.64455 37.1366 2.6906 4.71341 173.604 45.4519 92.9367 -106.89 -6.27385 -3.97845 75.7148 -10.4223 -9.26247 21.5183 0.62689 10.5293 -1.63048 8.1869 -89.0729 10.519 -2.82141 2.11348 -1.15055 -2.72569 2.23562 -23.7067 -3.32606 1.16725 -3.69406 -3.32607 1.16724 94.8406 -20.7718 -99.6444 43.5293 -4.14869 35.5299 18.2866 3.84731 -80.3232 -11.0054 -3.63761 -94.8473 -86.8916 -37.8787 81.1273 2.82559 23.1429 -58.9988 -108.728 18.6715 -134.131 -22.5108 -7.7339 18.0542 19.1703 1.08373 -13.026 -7.44643 4.92212 4.51742 
249.243 93.3149 246.901 -87.0111 42.5801 -88.7404 -166.286 -15.3053 97.8094 -21.3388 10.8477 0.134454 67.3903 6.73596 2.55427 56.7984 12.2189 4.86941 177.961 50.4018 97.4705 -80.7251 -1.88258 -2.32432 74.0814 -7.14177 -4.56509 23.6084 -0.261577 10.8818 -2.31348 7.82732 -90.2755 11.2357 -4.73218 -0.0784008 -0.426641 -4.73101 0.130404 -23.0262 -4.48949 -1.49988 -3.01352 -4.4895 -1.49989 95.7227 -16.9331 -98.707 44.3139 -12.8821 48.5271 29.8045 17.606 -61.6687 4.16693 -0.602696 -141.316 -85.9312 -32.6598 81.7372 -4.39149 16.8246 -52.0134 -125.968 19.412 -129.577 -33.6657 -13.1466 21.3163 16.4409 9.01999 -5.08081 -13.3083 9.79788 4.93413 
234.053 96.4291 230.615 -85.7744 48.1327 -83.9585 -166.639 -22.4981 99.9929 -21.0954 12.1373 3.91706 55.9284 -3.79086 0.754243 15.5466 -5.50004 -2.0769 -177.051 45.404 99.8306 -43.1545 -6.29 -1.05588 68.4647 -4.80192 -0.952792 22.1172 1.66302 5.47997 -2.63409 7.95002 -91.515 10.913 -5.9448 -2.45307 -0.746193 -6.04695 -2.18831 -23.3437 -4.93282 -4.12867 -3.33102 -4.93281 -4.12867 93.4119 -13.0669 -106.447 41.6969 -9.53066 50.4487 -10.2967 -13.6263 -62.297 -31.7826 33.5814 -106.139 -84.6455 -31.7467 83.9699 -0.253842 12.79 -42.6711 -133.207 13.0573 -117.836 -40.4584 -10.7171 15.3996 17.7532 16.2248 4.72998 -14.8324 14.0166 4.05977 
220.369 95.5055 215.769 -89.0192 51.7221 -84.143 -168.191 -24.1935 93.71 -39.5791 20.0068 1.87859 61.1357 0.439519 4.90513 24.1767 -0.593036 -4.34628 -175.82 37.8227 97.9397 -26.192 -18.2365 -1.67654 69.2543 -7.12309 -1.67441 27.3834 -0.00845029 3.12083 -2.235 7.87317 -91.3663 11.0839 -5.08251 -2.22159 -0.578612 -5.17532 -1.99529 -23.1571 -4.17999 -3.64769 -3.14446 -4.18 -3.64769 92.8299 -19.4034 -105.018 35.9274 -7.60108 43.7904 -19.6288 -20.8419 -62.8726 -42.9561 25.5014 -73.9087 -87.0403 -36.937 80.6624 1.87238 23.4843 -35.0811 -134.605 12.8513 -119.498 -33.5729 -10.1856 17.5563 15.0888 16.8103 6.1746 -12.3998 14.4758 3.60543 
207.263 93.8215 200.624 -97.9061 51.7145 -78.9712 -162.83 -14.986 96.0725 -68.6206 -0.42597 0.277412 63.2339 -0.164619 5.01715 25.1406 0.86121 -7.25354 -179.282 28.8957 97.8942 -31.0302 -12.2776 -0.580868 66.3041 -4.06101 -1.12299 23.5864 0.877167 6.04765 -1.78732 8.16815 -91.0751 10.5047 -4.05367 -1.77723 -1.16084 -4.12794 -1.59686 -23.7241 -3.33219 -2.91404 -3.71139 -3.33219 -2.91405 91.7733 -27.355 -104.063 32.7118 -2.81621 29.2144 -23.5358 -23.1433 -61.4402 -46.6277 13.8519 -41.9385 -87.6709 -45.9244 81.4371 -2.3774 31.9335 -24.0586 -144.006 8.70265 -124.057 -27.0981 -7.24691 15.6855 12.6222 15.1021 7.6676 -10.2871 12.7413 2.50349 
196.964 92.1982 186.523 -102.094 53.2758 -70.2705 -158.472 5.715 104.194 -93.4963 -8.20646 3.11531 68.8847 3.4324 8.53448 20.6416 -1.22946 -6.49393 178.701 26.8583 104.953 -48.8207 -12.3853 0.7684 68.0007 -5.16856 -4.47541 21.115 1.96204 5.89238 -0.378492 8.3154 -91.715 10.2097 -1.53683 -3.27818 -1.46436 -1.67956 -3.20748 -23.9658 -0.4813 -3.58804 -3.95318 -0.48129 -3.58804 90.7317 -31.3358 -104.85 32.9688 0.936477 8.57975 -25.4122 -18.5285 -65.5739 -49.286 5.77416 -22.8208 -88.6131 -52.4225 81.2658 -9.32763 35.2056 -8.59545 -139.055 -1.99748 -129.193 -22.8975 -8.15283 16.9503 13.2257 11.3956 9.31841 -10.0783 8.69543 1.31548 
186.045 91.2154 174.18 -105.079 50.7036 -67.3714 -167.649 25.7724 99.507 -101.292 4.06945 4.56432 73.3515 8.2309 10.237 20.4918 -0.833341 -7.63264 176.84 14.0726 104.83 -54.9968 -12.4565 0.936835 78.9285 -13.9105 -7.00141 27.7307 -0.749491 5.92207 0.485539 8.50316 -91.7575 9.85701 0.170897 -3.50074 -1.81865 0.0167781 -3.50489 -24.3195 1.21453 -3.28799 -4.30681 1.21455 -3.28799 89.2452 -31.892 -107.508 29.7563 5.02782 -14.3503 -22.5754 -12.8057 -67.095 -51.4603 7.33258 -23.8093 -86.7276 -50.2855 83.6817 -23.6588 36.4552 17.0884 -139.47 7.44413 -126.758 -19.641 -7.14987 16.8728 15.7874 6.82573 6.5868 -10.2478 4.72042 1.69428 
